# xmcd CD database file
#
# Track frame offsets:
#	150
#	14485
#	32422
#	49542
#	64025
#	82067
#	96225
#	108685
#	123617
#	136092
#	153317
#	165530
#	181990
#	204180
#
# Disc length: 2914 seconds
#
# Revision: 0
# Processed by: cddbd v1.4PL0 Copyright (c) Steve Scherf et al.
# Submitted via: CdAid (MTCDDB.DLL V2003.07.15)
#
DISCID=b30b600e
DTITLE=Various Artist - Landline
DYEAR=1994
DGENRE=Country
TTITLE0=Colin Buchanan: Come what may
TTITLE1=Anne Kirkpatrick: Out of the Blue
TTITLE2=gina Jeffreys: Ribbons and Roses
TTITLE3=Brent Parlane: Small Country
TTITLE4=Dead Ringer Band: Diamantina Drover
TTITLE5=Jenine Vaughan: forever Mine
TTITLE6=Lee Kernaghan: boys from the Bush
TTITLE7=Greg Champion: May your fridge be full of Coldies
TTITLE8=Allan Caswell: where do old cowboys go?
TTITLE9=Shanley Dell: Red Roses
TTITLE10=Tania Kernaghan: I'll be gone
TTITLE11=Felicity Urquhart: Sweet Music Man
TTITLE12=Graeme connors: Living off the Land
TTITLE13=Warren Derwent: Back of Beyond
EXTD=ABC Country Landline Collection ID3G:   2 YEAR: 1994
EXTT0=
EXTT1=
EXTT2=
EXTT3=
EXTT4=
EXTT5=
EXTT6=
EXTT7=
EXTT8=
EXTT9=
EXTT10=
EXTT11=
EXTT12=
EXTT13=
PLAYORDER=
